<svg xmlns="http://www.w3.org/2000/svg" width="1200" height="380" viewBox="0 0 1200 380" role="img" aria-label="6894 contributions in the last year, 120 stars across 52 public repos">
<defs>
  <pattern id="dots" width="24" height="24" patternUnits="userSpaceOnUse"><circle cx="1" cy="1" r="1" fill="#fff" fill-opacity=".06"/></pattern>
  <clipPath id="card"><rect width="1200" height="380" rx="20"/></clipPath>
</defs>
<style>
  .mono{font-family:ui-monospace,SFMono-Regular,Menlo,Consolas,monospace}
  .sans{font-family:-apple-system,BlinkMacSystemFont,"Segoe UI",Inter,Helvetica,Arial,sans-serif}
  .label{font-size:12px;letter-spacing:.16em;fill:#8A8A86}
</style>
<g clip-path="url(#card)"><rect width="1200" height="380" fill="#0B0B0C"/><rect width="1200" height="380" fill="url(#dots)"/></g>
<rect x=".5" y=".5" width="1199" height="379" rx="19.5" fill="none" stroke="#fff" stroke-opacity=".09"/>
<text x="40" y="52" class="mono label">ACTIVITY  /  LAST 12 MONTHS</text>
<text x="1160" y="52" text-anchor="end" class="mono label">UPDATED 2026-10-04</text>
<line x1="40" y1="256" x2="1160" y2="256" stroke="#fff" stroke-opacity=".08"/>
<text x="40" y="132" class="sans" font-size="44" font-weight="700" letter-spacing="-.03em" fill="#F4F4F0">6,894</text><text x="40" y="156" class="mono label">CONTRIBUTIONS</text><text x="210" y="132" class="sans" font-size="44" font-weight="700" letter-spacing="-.03em" fill="#F4F4F0">113</text><text x="210" y="156" class="mono label">LONGEST STREAK</text><text x="40" y="212" class="sans" font-size="44" font-weight="700" letter-spacing="-.03em" fill="#F4F4F0">52</text><text x="40" y="236" class="mono label">PUBLIC REPOS</text><text x="210" y="212" class="sans" font-size="44" font-weight="700" letter-spacing="-.03em" fill="#F4F4F0">120</text><text x="210" y="236" class="mono label">STARS EARNED</text><text x="421" y="88" class="mono" font-size="11" fill="#8A8A86">Oct</text><rect x="421" y="100" width="11" height="11" rx="2.5" fill="#C6FF3D" fill-opacity="0.3"/><rect x="421" y="114" width="11" height="11" rx="2.5" fill="#C6FF3D" fill-opacity="0.5"/><rect x="421" y="128" width="11" height="11" rx="2.5" fill="#C6FF3D" fill-opacity="0.3"/><rect x="421" y="142" width="11" height="11" rx="2.5" fill="#C6FF3D" fill-opacity="0.5"/><rect x="421" y="156" width="11" height="11" rx="2.5" fill="#C6FF3D" fill-opacity="0.3"/><rect x="421" y="170" width="11" height="11" rx="2.5" fill="#C6FF3D" fill-opacity="0.3"/><rect x="421" y="184" width="11" height="11" rx="2.5" fill="#C6FF3D" fill-opacity="0.3"/><rect x="435" y="100" width="11" height="11" rx="2.5" fill="#C6FF3D" fill-opacity="0.3"/><rect x="435" y="114" width="11" height="11" rx="2.5" fill="#C6FF3D" fill-opacity="0.3"/><rect x="435" y="128" width="11" height="11" rx="2.5" fill="#C6FF3D" fill-opacity="0.5"/><rect x="435" y="142" width="11" height="11" rx="2.5" fill="#C6FF3D" fill-opacity="0.3"/><rect x="435" y="156" width="11" height="11" rx="2.5" fill="#C6FF3D" fill-opacity="0.3"/><rect x="435" y="170" width="11" height="11" rx="2.5" fill="#C6FF3D" fill-opacity="0.5"/><rect x="435" y="184" width="11" height="11" rx="2.5" fill="#C6FF3D" fill-opacity="0.3"/><rect x="449" y="100" width="11" height="11" rx="2.5" fill="#C6FF3D" fill-opacity="0.3"/><rect x="449" y="114" width="11" height="11" rx="2.5" fill="#C6FF3D" fill-opacity="0.3"/><rect x="449" y="128" width="11" height="11" rx="2.5" fill="#C6FF3D" fill-opacity="0.3"/><rect x="449" y="142" width="11" height="11" rx="2.5" fill="#C6FF3D" fill-opacity="0.5"/><rect x="449" y="156" width="11" height="11" rx="2.5" fill="#C6FF3D" fill-opacity="0.3"/><rect x="449" y="170" width="11" height="11" rx="2.5" fill="#C6FF3D" fill-opacity="0.5"/><rect x="449" y="184" width="11" height="11" rx="2.5" fill="#C6FF3D" fill-opacity="0.3"/><rect x="463" y="100" width="11" height="11" rx="2.5" fill="#C6FF3D" fill-opacity="0.3"/><rect x="463" y="114" width="11" height="11" rx="2.5" fill="#C6FF3D" fill-opacity="0.5"/><rect x="463" y="128" width="11" height="11" rx="2.5" fill="#C6FF3D" fill-opacity="0.3"/><rect x="463" y="142" width="11" height="11" rx="2.5" fill="#C6FF3D" fill-opacity="0.3"/><rect x="463" y="156" width="11" height="11" rx="2.5" fill="#C6FF3D" fill-opacity="0.3"/><rect x="463" y="170" width="11" height="11" rx="2.5" fill="#C6FF3D" fill-opacity="0.5"/><rect x="463" y="184" width="11" height="11" rx="2.5" fill="#C6FF3D" fill-opacity="0.3"/><text x="477" y="88" class="mono" font-size="11" fill="#8A8A86">Nov</text><rect x="477" y="100" width="11" height="11" rx="2.5" fill="#C6FF3D" fill-opacity="0.5"/><rect x="477" y="114" width="11" height="11" rx="2.5" fill="#C6FF3D" fill-opacity="0.3"/><rect x="477" y="128" width="11" height="11" rx="2.5" fill="#C6FF3D" fill-opacity="0.3"/><rect x="477" y="142" width="11" height="11" rx="2.5" fill="#C6FF3D" fill-opacity="0.3"/><rect x="477" y="156" width="11" height="11" rx="2.5" fill="#C6FF3D" fill-opacity="0.5"/><rect x="477" y="170" width="11" height="11" rx="2.5" fill="#C6FF3D" fill-opacity="0.3"/><rect x="477" y="184" width="11" height="11" rx="2.5" fill="#C6FF3D" fill-opacity="0.3"/><rect x="491" y="100" width="11" height="11" rx="2.5" fill="#C6FF3D" fill-opacity="0.5"/><rect x="491" y="114" width="11" height="11" rx="2.5" fill="#C6FF3D" fill-opacity="0.3"/><rect x="491" y="128" width="11" height="11" rx="2.5" fill="#C6FF3D" fill-opacity="0.3"/><rect x="491" y="142" width="11" height="11" rx="2.5" fill="#C6FF3D" fill-opacity="0.5"/><rect x="491" y="156" width="11" height="11" rx="2.5" fill="#C6FF3D" fill-opacity="0.75"/><rect x="491" y="170" width="11" height="11" rx="2.5" fill="#C6FF3D" fill-opacity="0.5"/><rect x="491" y="184" width="11" height="11" rx="2.5" fill="#C6FF3D" fill-opacity="0.75"/><rect x="505" y="100" width="11" height="11" rx="2.5" fill="#C6FF3D" fill-opacity="0.5"/><rect x="505" y="114" width="11" height="11" rx="2.5" fill="#C6FF3D" fill-opacity="0.5"/><rect x="505" y="128" width="11" height="11" rx="2.5" fill="#C6FF3D" fill-opacity="0.5"/><rect x="505" y="142" width="11" height="11" rx="2.5" fill="#C6FF3D" fill-opacity="1"/><rect x="505" y="156" width="11" height="11" rx="2.5" fill="#C6FF3D" fill-opacity="1"/><rect x="505" y="170" width="11" height="11" rx="2.5" fill="#C6FF3D" fill-opacity="1"/><rect x="505" y="184" width="11" height="11" rx="2.5" fill="#C6FF3D" fill-opacity="1"/><rect x="519" y="100" width="11" height="11" rx="2.5" fill="#C6FF3D" fill-opacity="0.75"/><rect x="519" y="114" width="11" height="11" rx="2.5" fill="#C6FF3D" fill-opacity="1"/><rect x="519" y="128" width="11" height="11" rx="2.5" fill="#C6FF3D" fill-opacity="0.5"/><rect x="519" y="142" width="11" height="11" rx="2.5" fill="#C6FF3D" fill-opacity="1"/><rect x="519" y="156" width="11" height="11" rx="2.5" fill="#C6FF3D" fill-opacity="1"/><rect x="519" y="170" width="11" height="11" rx="2.5" fill="#C6FF3D" fill-opacity="0.5"/><rect x="519" y="184" width="11" height="11" rx="2.5" fill="#C6FF3D" fill-opacity="0.75"/><rect x="533" y="100" width="11" height="11" rx="2.5" fill="#C6FF3D" fill-opacity="0.75"/><rect x="533" y="114" width="11" height="11" rx="2.5" fill="#C6FF3D" fill-opacity="1"/><rect x="533" y="128" width="11" height="11" rx="2.5" fill="#C6FF3D" fill-opacity="0.75"/><rect x="533" y="142" width="11" height="11" rx="2.5" fill="#C6FF3D" fill-opacity="0.75"/><rect x="533" y="156" width="11" height="11" rx="2.5" fill="#C6FF3D" fill-opacity="1"/><rect x="533" y="170" width="11" height="11" rx="2.5" fill="#C6FF3D" fill-opacity="0.75"/><rect x="533" y="184" width="11" height="11" rx="2.5" fill="#C6FF3D" fill-opacity="1"/><text x="547" y="88" class="mono" font-size="11" fill="#8A8A86">Dec</text><rect x="547" y="100" width="11" height="11" rx="2.5" fill="#C6FF3D" fill-opacity="0.75"/><rect x="547" y="114" width="11" height="11" rx="2.5" fill="#C6FF3D" fill-opacity="0.75"/><rect x="547" y="128" width="11" height="11" rx="2.5" fill="#C6FF3D" fill-opacity="0.75"/><rect x="547" y="142" width="11" height="11" rx="2.5" fill="#C6FF3D" fill-opacity="1"/><rect x="547" y="156" width="11" height="11" rx="2.5" fill="#C6FF3D" fill-opacity="0.75"/><rect x="547" y="170" width="11" height="11" rx="2.5" fill="#C6FF3D" fill-opacity="1"/><rect x="547" y="184" width="11" height="11" rx="2.5" fill="#C6FF3D" fill-opacity="0.3"/><rect x="561" y="100" width="11" height="11" rx="2.5" fill="#C6FF3D" fill-opacity="0.5"/><rect x="561" y="114" width="11" height="11" rx="2.5" fill="#C6FF3D" fill-opacity="0.75"/><rect x="561" y="128" width="11" height="11" rx="2.5" fill="#C6FF3D" fill-opacity="0.75"/><rect x="561" y="142" width="11" height="11" rx="2.5" fill="#C6FF3D" fill-opacity="0.5"/><rect x="561" y="156" width="11" height="11" rx="2.5" fill="#C6FF3D" fill-opacity="0.75"/><rect x="561" y="170" width="11" height="11" rx="2.5" fill="#C6FF3D" fill-opacity="1"/><rect x="561" y="184" width="11" height="11" rx="2.5" fill="#C6FF3D" fill-opacity="0.3"/><rect x="575" y="100" width="11" height="11" rx="2.5" fill="#C6FF3D" fill-opacity="0.3"/><rect x="575" y="114" width="11" height="11" rx="2.5" fill="#C6FF3D" fill-opacity="0.5"/><rect x="575" y="128" width="11" height="11" rx="2.5" fill="#C6FF3D" fill-opacity="0.3"/><rect x="575" y="142" width="11" height="11" rx="2.5" fill="#C6FF3D" fill-opacity="0.3"/><rect x="575" y="156" width="11" height="11" rx="2.5" fill="#C6FF3D" fill-opacity="0.3"/><rect x="575" y="170" width="11" height="11" rx="2.5" fill="#C6FF3D" fill-opacity="0.3"/><rect x="575" y="184" width="11" height="11" rx="2.5" fill="#C6FF3D" fill-opacity="0.3"/><rect x="589" y="100" width="11" height="11" rx="2.5" fill="#C6FF3D" fill-opacity="0.3"/><rect x="589" y="114" width="11" height="11" rx="2.5" fill="#C6FF3D" fill-opacity="0.3"/><rect x="589" y="128" width="11" height="11" rx="2.5" fill="#C6FF3D" fill-opacity="0.3"/><rect x="589" y="142" width="11" height="11" rx="2.5" fill="#C6FF3D" fill-opacity="0.3"/><rect x="589" y="156" width="11" height="11" rx="2.5" fill="#C6FF3D" fill-opacity="0.3"/><rect x="589" y="170" width="11" height="11" rx="2.5" fill="#C6FF3D" fill-opacity="0.3"/><rect x="589" y="184" width="11" height="11" rx="2.5" fill="#C6FF3D" fill-opacity="0.3"/><text x="603" y="88" class="mono" font-size="11" fill="#8A8A86">Jan</text><rect x="603" y="100" width="11" height="11" rx="2.5" fill="#C6FF3D" fill-opacity="0.3"/><rect x="603" y="114" width="11" height="11" rx="2.5" fill="#C6FF3D" fill-opacity="0.3"/><rect x="603" y="128" width="11" height="11" rx="2.5" fill="#C6FF3D" fill-opacity="0.3"/><rect x="603" y="142" width="11" height="11" rx="2.5" fill="#C6FF3D" fill-opacity="0.3"/><rect x="603" y="156" width="11" height="11" rx="2.5" fill="#C6FF3D" fill-opacity="0.3"/><rect x="603" y="170" width="11" height="11" rx="2.5" fill="#C6FF3D" fill-opacity="0.3"/><rect x="603" y="184" width="11" height="11" rx="2.5" fill="#C6FF3D" fill-opacity="0.3"/><rect x="617" y="100" width="11" height="11" rx="2.5" fill="#fff" fill-opacity="0.06"/><rect x="617" y="114" width="11" height="11" rx="2.5" fill="#C6FF3D" fill-opacity="0.3"/><rect x="617" y="128" width="11" height="11" rx="2.5" fill="#C6FF3D" fill-opacity="0.3"/><rect x="617" y="142" width="11" height="11" rx="2.5" fill="#C6FF3D" fill-opacity="0.3"/><rect x="617" y="156" width="11" height="11" rx="2.5" fill="#C6FF3D" fill-opacity="0.3"/><rect x="617" y="170" width="11" height="11" rx="2.5" fill="#C6FF3D" fill-opacity="0.3"/><rect x="617" y="184" width="11" height="11" rx="2.5" fill="#C6FF3D" fill-opacity="0.3"/><rect x="631" y="100" width="11" height="11" rx="2.5" fill="#C6FF3D" fill-opacity="0.3"/><rect x="631" y="114" width="11" height="11" rx="2.5" fill="#C6FF3D" fill-opacity="0.3"/><rect x="631" y="128" width="11" height="11" rx="2.5" fill="#C6FF3D" fill-opacity="0.3"/><rect x="631" y="142" width="11" height="11" rx="2.5" fill="#C6FF3D" fill-opacity="0.3"/><rect x="631" y="156" width="11" height="11" rx="2.5" fill="#C6FF3D" fill-opacity="0.3"/><rect x="631" y="170" width="11" height="11" rx="2.5" fill="#C6FF3D" fill-opacity="0.3"/><rect x="631" y="184" width="11" height="11" rx="2.5" fill="#C6FF3D" fill-opacity="0.3"/><rect x="645" y="100" width="11" height="11" rx="2.5" fill="#C6FF3D" fill-opacity="0.3"/><rect x="645" y="114" width="11" height="11" rx="2.5" fill="#C6FF3D" fill-opacity="0.3"/><rect x="645" y="128" width="11" height="11" rx="2.5" fill="#C6FF3D" fill-opacity="0.3"/><rect x="645" y="142" width="11" height="11" rx="2.5" fill="#C6FF3D" fill-opacity="0.3"/><rect x="645" y="156" width="11" height="11" rx="2.5" fill="#C6FF3D" fill-opacity="0.3"/><rect x="645" y="170" width="11" height="11" rx="2.5" fill="#C6FF3D" fill-opacity="0.3"/><rect x="645" y="184" width="11" height="11" rx="2.5" fill="#C6FF3D" fill-opacity="0.3"/><text x="659" y="88" class="mono" font-size="11" fill="#8A8A86">Feb</text><rect x="659" y="100" width="11" height="11" rx="2.5" fill="#C6FF3D" fill-opacity="0.3"/><rect x="659" y="114" width="11" height="11" rx="2.5" fill="#C6FF3D" fill-opacity="0.3"/><rect x="659" y="128" width="11" height="11" rx="2.5" fill="#C6FF3D" fill-opacity="0.3"/><rect x="659" y="142" width="11" height="11" rx="2.5" fill="#C6FF3D" fill-opacity="0.3"/><rect x="659" y="156" width="11" height="11" rx="2.5" fill="#C6FF3D" fill-opacity="0.3"/><rect x="659" y="170" width="11" height="11" rx="2.5" fill="#C6FF3D" fill-opacity="0.3"/><rect x="659" y="184" width="11" height="11" rx="2.5" fill="#C6FF3D" fill-opacity="0.3"/><rect x="673" y="100" width="11" height="11" rx="2.5" fill="#C6FF3D" fill-opacity="0.3"/><rect x="673" y="114" width="11" height="11" rx="2.5" fill="#C6FF3D" fill-opacity="0.3"/><rect x="673" y="128" width="11" height="11" rx="2.5" fill="#C6FF3D" fill-opacity="0.3"/><rect x="673" y="142" width="11" height="11" rx="2.5" fill="#C6FF3D" fill-opacity="0.3"/><rect x="673" y="156" width="11" height="11" rx="2.5" fill="#C6FF3D" fill-opacity="0.3"/><rect x="673" y="170" width="11" height="11" rx="2.5" fill="#C6FF3D" fill-opacity="0.3"/><rect x="673" y="184" width="11" height="11" rx="2.5" fill="#C6FF3D" fill-opacity="0.3"/><rect x="687" y="100" width="11" height="11" rx="2.5" fill="#C6FF3D" fill-opacity="0.3"/><rect x="687" y="114" width="11" height="11" rx="2.5" fill="#C6FF3D" fill-opacity="0.3"/><rect x="687" y="128" width="11" height="11" rx="2.5" fill="#C6FF3D" fill-opacity="0.3"/><rect x="687" y="142" width="11" height="11" rx="2.5" fill="#C6FF3D" fill-opacity="0.3"/><rect x="687" y="156" width="11" height="11" rx="2.5" fill="#C6FF3D" fill-opacity="0.3"/><rect x="687" y="170" width="11" height="11" rx="2.5" fill="#C6FF3D" fill-opacity="0.3"/><rect x="687" y="184" width="11" height="11" rx="2.5" fill="#C6FF3D" fill-opacity="0.3"/><rect x="701" y="100" width="11" height="11" rx="2.5" fill="#C6FF3D" fill-opacity="0.3"/><rect x="701" y="114" width="11" height="11" rx="2.5" fill="#C6FF3D" fill-opacity="0.3"/><rect x="701" y="128" width="11" height="11" rx="2.5" fill="#C6FF3D" fill-opacity="0.3"/><rect x="701" y="142" width="11" height="11" rx="2.5" fill="#C6FF3D" fill-opacity="0.3"/><rect x="701" y="156" width="11" height="11" rx="2.5" fill="#C6FF3D" fill-opacity="0.3"/><rect x="701" y="170" width="11" height="11" rx="2.5" fill="#C6FF3D" fill-opacity="0.3"/><rect x="701" y="184" width="11" height="11" rx="2.5" fill="#C6FF3D" fill-opacity="0.3"/><text x="715" y="88" class="mono" font-size="11" fill="#8A8A86">Mar</text><rect x="715" y="100" width="11" height="11" rx="2.5" fill="#C6FF3D" fill-opacity="0.3"/><rect x="715" y="114" width="11" height="11" rx="2.5" fill="#C6FF3D" fill-opacity="0.3"/><rect x="715" y="128" width="11" height="11" rx="2.5" fill="#C6FF3D" fill-opacity="0.3"/><rect x="715" y="142" width="11" height="11" rx="2.5" fill="#C6FF3D" fill-opacity="0.3"/><rect x="715" y="156" width="11" height="11" rx="2.5" fill="#C6FF3D" fill-opacity="0.3"/><rect x="715" y="170" width="11" height="11" rx="2.5" fill="#C6FF3D" fill-opacity="0.3"/><rect x="715" y="184" width="11" height="11" rx="2.5" fill="#C6FF3D" fill-opacity="0.3"/><rect x="729" y="100" width="11" height="11" rx="2.5" fill="#C6FF3D" fill-opacity="0.3"/><rect x="729" y="114" width="11" height="11" rx="2.5" fill="#C6FF3D" fill-opacity="0.3"/><rect x="729" y="128" width="11" height="11" rx="2.5" fill="#C6FF3D" fill-opacity="0.3"/><rect x="729" y="142" width="11" height="11" rx="2.5" fill="#C6FF3D" fill-opacity="0.3"/><rect x="729" y="156" width="11" height="11" rx="2.5" fill="#C6FF3D" fill-opacity="0.3"/><rect x="729" y="170" width="11" height="11" rx="2.5" fill="#C6FF3D" fill-opacity="0.3"/><rect x="729" y="184" width="11" height="11" rx="2.5" fill="#C6FF3D" fill-opacity="0.3"/><rect x="743" y="100" width="11" height="11" rx="2.5" fill="#C6FF3D" fill-opacity="0.3"/><rect x="743" y="114" width="11" height="11" rx="2.5" fill="#C6FF3D" fill-opacity="0.3"/><rect x="743" y="128" width="11" height="11" rx="2.5" fill="#C6FF3D" fill-opacity="0.3"/><rect x="743" y="142" width="11" height="11" rx="2.5" fill="#C6FF3D" fill-opacity="0.3"/><rect x="743" y="156" width="11" height="11" rx="2.5" fill="#C6FF3D" fill-opacity="0.3"/><rect x="743" y="170" width="11" height="11" rx="2.5" fill="#C6FF3D" fill-opacity="0.3"/><rect x="743" y="184" width="11" height="11" rx="2.5" fill="#C6FF3D" fill-opacity="0.3"/><rect x="757" y="100" width="11" height="11" rx="2.5" fill="#C6FF3D" fill-opacity="0.3"/><rect x="757" y="114" width="11" height="11" rx="2.5" fill="#C6FF3D" fill-opacity="0.5"/><rect x="757" y="128" width="11" height="11" rx="2.5" fill="#C6FF3D" fill-opacity="0.3"/><rect x="757" y="142" width="11" height="11" rx="2.5" fill="#C6FF3D" fill-opacity="0.3"/><rect x="757" y="156" width="11" height="11" rx="2.5" fill="#C6FF3D" fill-opacity="0.3"/><rect x="757" y="170" width="11" height="11" rx="2.5" fill="#C6FF3D" fill-opacity="0.3"/><rect x="757" y="184" width="11" height="11" rx="2.5" fill="#C6FF3D" fill-opacity="0.3"/><rect x="771" y="100" width="11" height="11" rx="2.5" fill="#C6FF3D" fill-opacity="0.3"/><rect x="771" y="114" width="11" height="11" rx="2.5" fill="#C6FF3D" fill-opacity="0.3"/><rect x="771" y="128" width="11" height="11" rx="2.5" fill="#C6FF3D" fill-opacity="0.3"/><rect x="771" y="142" width="11" height="11" rx="2.5" fill="#C6FF3D" fill-opacity="0.3"/><rect x="771" y="156" width="11" height="11" rx="2.5" fill="#C6FF3D" fill-opacity="0.3"/><rect x="771" y="170" width="11" height="11" rx="2.5" fill="#C6FF3D" fill-opacity="0.3"/><rect x="771" y="184" width="11" height="11" rx="2.5" fill="#C6FF3D" fill-opacity="0.3"/><text x="785" y="88" class="mono" font-size="11" fill="#8A8A86">Apr</text><rect x="785" y="100" width="11" height="11" rx="2.5" fill="#C6FF3D" fill-opacity="0.3"/><rect x="785" y="114" width="11" height="11" rx="2.5" fill="#C6FF3D" fill-opacity="0.5"/><rect x="785" y="128" width="11" height="11" rx="2.5" fill="#C6FF3D" fill-opacity="0.3"/><rect x="785" y="142" width="11" height="11" rx="2.5" fill="#C6FF3D" fill-opacity="0.3"/><rect x="785" y="156" width="11" height="11" rx="2.5" fill="#C6FF3D" fill-opacity="0.3"/><rect x="785" y="170" width="11" height="11" rx="2.5" fill="#C6FF3D" fill-opacity="0.3"/><rect x="785" y="184" width="11" height="11" rx="2.5" fill="#C6FF3D" fill-opacity="0.3"/><rect x="799" y="100" width="11" height="11" rx="2.5" fill="#C6FF3D" fill-opacity="0.3"/><rect x="799" y="114" width="11" height="11" rx="2.5" fill="#C6FF3D" fill-opacity="0.3"/><rect x="799" y="128" width="11" height="11" rx="2.5" fill="#C6FF3D" fill-opacity="0.3"/><rect x="799" y="142" width="11" height="11" rx="2.5" fill="#C6FF3D" fill-opacity="0.3"/><rect x="799" y="156" width="11" height="11" rx="2.5" fill="#C6FF3D" fill-opacity="0.3"/><rect x="799" y="170" width="11" height="11" rx="2.5" fill="#C6FF3D" fill-opacity="0.3"/><rect x="799" y="184" width="11" height="11" rx="2.5" fill="#C6FF3D" fill-opacity="0.3"/><rect x="813" y="100" width="11" height="11" rx="2.5" fill="#C6FF3D" fill-opacity="0.3"/><rect x="813" y="114" width="11" height="11" rx="2.5" fill="#C6FF3D" fill-opacity="0.3"/><rect x="813" y="128" width="11" height="11" rx="2.5" fill="#C6FF3D" fill-opacity="0.3"/><rect x="813" y="142" width="11" height="11" rx="2.5" fill="#C6FF3D" fill-opacity="0.3"/><rect x="813" y="156" width="11" height="11" rx="2.5" fill="#C6FF3D" fill-opacity="0.3"/><rect x="813" y="170" width="11" height="11" rx="2.5" fill="#C6FF3D" fill-opacity="0.3"/><rect x="813" y="184" width="11" height="11" rx="2.5" fill="#C6FF3D" fill-opacity="0.3"/><rect x="827" y="100" width="11" height="11" rx="2.5" fill="#C6FF3D" fill-opacity="0.3"/><rect x="827" y="114" width="11" height="11" rx="2.5" fill="#C6FF3D" fill-opacity="0.3"/><rect x="827" y="128" width="11" height="11" rx="2.5" fill="#C6FF3D" fill-opacity="0.3"/><rect x="827" y="142" width="11" height="11" rx="2.5" fill="#C6FF3D" fill-opacity="0.3"/><rect x="827" y="156" width="11" height="11" rx="2.5" fill="#C6FF3D" fill-opacity="0.3"/><rect x="827" y="170" width="11" height="11" rx="2.5" fill="#C6FF3D" fill-opacity="0.3"/><rect x="827" y="184" width="11" height="11" rx="2.5" fill="#C6FF3D" fill-opacity="0.3"/><text x="841" y="88" class="mono" font-size="11" fill="#8A8A86">May</text><rect x="841" y="100" width="11" height="11" rx="2.5" fill="#C6FF3D" fill-opacity="0.3"/><rect x="841" y="114" width="11" height="11" rx="2.5" fill="#C6FF3D" fill-opacity="0.3"/><rect x="841" y="128" width="11" height="11" rx="2.5" fill="#fff" fill-opacity="0.06"/><rect x="841" y="142" width="11" height="11" rx="2.5" fill="#C6FF3D" fill-opacity="0.3"/><rect x="841" y="156" width="11" height="11" rx="2.5" fill="#C6FF3D" fill-opacity="0.3"/><rect x="841" y="170" width="11" height="11" rx="2.5" fill="#fff" fill-opacity="0.06"/><rect x="841" y="184" width="11" height="11" rx="2.5" fill="#C6FF3D" fill-opacity="0.3"/><rect x="855" y="100" width="11" height="11" rx="2.5" fill="#C6FF3D" fill-opacity="0.3"/><rect x="855" y="114" width="11" height="11" rx="2.5" fill="#C6FF3D" fill-opacity="0.3"/><rect x="855" y="128" width="11" height="11" rx="2.5" fill="#fff" fill-opacity="0.06"/><rect x="855" y="142" width="11" height="11" rx="2.5" fill="#C6FF3D" fill-opacity="0.3"/><rect x="855" y="156" width="11" height="11" rx="2.5" fill="#fff" fill-opacity="0.06"/><rect x="855" y="170" width="11" height="11" rx="2.5" fill="#C6FF3D" fill-opacity="0.3"/><rect x="855" y="184" width="11" height="11" rx="2.5" fill="#C6FF3D" fill-opacity="0.3"/><rect x="869" y="100" width="11" height="11" rx="2.5" fill="#C6FF3D" fill-opacity="0.3"/><rect x="869" y="114" width="11" height="11" rx="2.5" fill="#C6FF3D" fill-opacity="0.3"/><rect x="869" y="128" width="11" height="11" rx="2.5" fill="#C6FF3D" fill-opacity="0.3"/><rect x="869" y="142" width="11" height="11" rx="2.5" fill="#C6FF3D" fill-opacity="0.3"/><rect x="869" y="156" width="11" height="11" rx="2.5" fill="#C6FF3D" fill-opacity="0.3"/><rect x="869" y="170" width="11" height="11" rx="2.5" fill="#C6FF3D" fill-opacity="0.3"/><rect x="869" y="184" width="11" height="11" rx="2.5" fill="#fff" fill-opacity="0.06"/><rect x="883" y="100" width="11" height="11" rx="2.5" fill="#C6FF3D" fill-opacity="0.3"/><rect x="883" y="114" width="11" height="11" rx="2.5" fill="#fff" fill-opacity="0.06"/><rect x="883" y="128" width="11" height="11" rx="2.5" fill="#C6FF3D" fill-opacity="0.3"/><rect x="883" y="142" width="11" height="11" rx="2.5" fill="#fff" fill-opacity="0.06"/><rect x="883" y="156" width="11" height="11" rx="2.5" fill="#C6FF3D" fill-opacity="0.3"/><rect x="883" y="170" width="11" height="11" rx="2.5" fill="#fff" fill-opacity="0.06"/><rect x="883" y="184" width="11" height="11" rx="2.5" fill="#C6FF3D" fill-opacity="0.3"/><rect x="897" y="100" width="11" height="11" rx="2.5" fill="#fff" fill-opacity="0.06"/><rect x="897" y="114" width="11" height="11" rx="2.5" fill="#C6FF3D" fill-opacity="0.3"/><rect x="897" y="128" width="11" height="11" rx="2.5" fill="#fff" fill-opacity="0.06"/><rect x="897" y="142" width="11" height="11" rx="2.5" fill="#C6FF3D" fill-opacity="0.3"/><rect x="897" y="156" width="11" height="11" rx="2.5" fill="#fff" fill-opacity="0.06"/><rect x="897" y="170" width="11" height="11" rx="2.5" fill="#C6FF3D" fill-opacity="0.3"/><rect x="897" y="184" width="11" height="11" rx="2.5" fill="#fff" fill-opacity="0.06"/><text x="911" y="88" class="mono" font-size="11" fill="#8A8A86">Jun</text><rect x="911" y="100" width="11" height="11" rx="2.5" fill="#C6FF3D" fill-opacity="0.3"/><rect x="911" y="114" width="11" height="11" rx="2.5" fill="#fff" fill-opacity="0.06"/><rect x="911" y="128" width="11" height="11" rx="2.5" fill="#C6FF3D" fill-opacity="0.3"/><rect x="911" y="142" width="11" height="11" rx="2.5" fill="#fff" fill-opacity="0.06"/><rect x="911" y="156" width="11" height="11" rx="2.5" fill="#C6FF3D" fill-opacity="0.3"/><rect x="911" y="170" width="11" height="11" rx="2.5" fill="#fff" fill-opacity="0.06"/><rect x="911" y="184" width="11" height="11" rx="2.5" fill="#C6FF3D" fill-opacity="0.3"/><rect x="925" y="100" width="11" height="11" rx="2.5" fill="#fff" fill-opacity="0.06"/><rect x="925" y="114" width="11" height="11" rx="2.5" fill="#C6FF3D" fill-opacity="0.3"/><rect x="925" y="128" width="11" height="11" rx="2.5" fill="#fff" fill-opacity="0.06"/><rect x="925" y="142" width="11" height="11" rx="2.5" fill="#C6FF3D" fill-opacity="0.3"/><rect x="925" y="156" width="11" height="11" rx="2.5" fill="#fff" fill-opacity="0.06"/><rect x="925" y="170" width="11" height="11" rx="2.5" fill="#C6FF3D" fill-opacity="0.3"/><rect x="925" y="184" width="11" height="11" rx="2.5" fill="#fff" fill-opacity="0.06"/><rect x="939" y="100" width="11" height="11" rx="2.5" fill="#C6FF3D" fill-opacity="0.3"/><rect x="939" y="114" width="11" height="11" rx="2.5" fill="#fff" fill-opacity="0.06"/><rect x="939" y="128" width="11" height="11" rx="2.5" fill="#C6FF3D" fill-opacity="0.3"/><rect x="939" y="142" width="11" height="11" rx="2.5" fill="#fff" fill-opacity="0.06"/><rect x="939" y="156" width="11" height="11" rx="2.5" fill="#C6FF3D" fill-opacity="0.3"/><rect x="939" y="170" width="11" height="11" rx="2.5" fill="#C6FF3D" fill-opacity="0.75"/><rect x="939" y="184" width="11" height="11" rx="2.5" fill="#C6FF3D" fill-opacity="0.75"/><rect x="953" y="100" width="11" height="11" rx="2.5" fill="#C6FF3D" fill-opacity="0.3"/><rect x="953" y="114" width="11" height="11" rx="2.5" fill="#C6FF3D" fill-opacity="0.5"/><rect x="953" y="128" width="11" height="11" rx="2.5" fill="#C6FF3D" fill-opacity="0.3"/><rect x="953" y="142" width="11" height="11" rx="2.5" fill="#C6FF3D" fill-opacity="0.3"/><rect x="953" y="156" width="11" height="11" rx="2.5" fill="#C6FF3D" fill-opacity="0.3"/><rect x="953" y="170" width="11" height="11" rx="2.5" fill="#C6FF3D" fill-opacity="0.3"/><rect x="953" y="184" width="11" height="11" rx="2.5" fill="#fff" fill-opacity="0.06"/><text x="967" y="88" class="mono" font-size="11" fill="#8A8A86">Jul</text><rect x="967" y="100" width="11" height="11" rx="2.5" fill="#C6FF3D" fill-opacity="0.3"/><rect x="967" y="114" width="11" height="11" rx="2.5" fill="#C6FF3D" fill-opacity="0.3"/><rect x="967" y="128" width="11" height="11" rx="2.5" fill="#fff" fill-opacity="0.06"/><rect x="967" y="142" width="11" height="11" rx="2.5" fill="#C6FF3D" fill-opacity="0.3"/><rect x="967" y="156" width="11" height="11" rx="2.5" fill="#fff" fill-opacity="0.06"/><rect x="967" y="170" width="11" height="11" rx="2.5" fill="#C6FF3D" fill-opacity="0.3"/><rect x="967" y="184" width="11" height="11" rx="2.5" fill="#C6FF3D" fill-opacity="0.3"/><rect x="981" y="100" width="11" height="11" rx="2.5" fill="#C6FF3D" fill-opacity="0.3"/><rect x="981" y="114" width="11" height="11" rx="2.5" fill="#C6FF3D" fill-opacity="0.3"/><rect x="981" y="128" width="11" height="11" rx="2.5" fill="#C6FF3D" fill-opacity="0.3"/><rect x="981" y="142" width="11" height="11" rx="2.5" fill="#C6FF3D" fill-opacity="0.3"/><rect x="981" y="156" width="11" height="11" rx="2.5" fill="#C6FF3D" fill-opacity="0.5"/><rect x="981" y="170" width="11" height="11" rx="2.5" fill="#C6FF3D" fill-opacity="0.3"/><rect x="981" y="184" width="11" height="11" rx="2.5" fill="#C6FF3D" fill-opacity="0.3"/><rect x="995" y="100" width="11" height="11" rx="2.5" fill="#fff" fill-opacity="0.06"/><rect x="995" y="114" width="11" height="11" rx="2.5" fill="#C6FF3D" fill-opacity="0.3"/><rect x="995" y="128" width="11" height="11" rx="2.5" fill="#fff" fill-opacity="0.06"/><rect x="995" y="142" width="11" height="11" rx="2.5" fill="#C6FF3D" fill-opacity="0.3"/><rect x="995" y="156" width="11" height="11" rx="2.5" fill="#fff" fill-opacity="0.06"/><rect x="995" y="170" width="11" height="11" rx="2.5" fill="#C6FF3D" fill-opacity="0.3"/><rect x="995" y="184" width="11" height="11" rx="2.5" fill="#fff" fill-opacity="0.06"/><rect x="1009" y="100" width="11" height="11" rx="2.5" fill="#C6FF3D" fill-opacity="0.3"/><rect x="1009" y="114" width="11" height="11" rx="2.5" fill="#fff" fill-opacity="0.06"/><rect x="1009" y="128" width="11" height="11" rx="2.5" fill="#C6FF3D" fill-opacity="0.3"/><rect x="1009" y="142" width="11" height="11" rx="2.5" fill="#fff" fill-opacity="0.06"/><rect x="1009" y="156" width="11" height="11" rx="2.5" fill="#C6FF3D" fill-opacity="0.3"/><rect x="1009" y="170" width="11" height="11" rx="2.5" fill="#fff" fill-opacity="0.06"/><rect x="1009" y="184" width="11" height="11" rx="2.5" fill="#C6FF3D" fill-opacity="0.3"/><text x="1023" y="88" class="mono" font-size="11" fill="#8A8A86">Aug</text><rect x="1023" y="100" width="11" height="11" rx="2.5" fill="#fff" fill-opacity="0.06"/><rect x="1023" y="114" width="11" height="11" rx="2.5" fill="#C6FF3D" fill-opacity="0.3"/><rect x="1023" y="128" width="11" height="11" rx="2.5" fill="#fff" fill-opacity="0.06"/><rect x="1023" y="142" width="11" height="11" rx="2.5" fill="#C6FF3D" fill-opacity="0.3"/><rect x="1023" y="156" width="11" height="11" rx="2.5" fill="#fff" fill-opacity="0.06"/><rect x="1023" y="170" width="11" height="11" rx="2.5" fill="#C6FF3D" fill-opacity="0.3"/><rect x="1023" y="184" width="11" height="11" rx="2.5" fill="#fff" fill-opacity="0.06"/><rect x="1037" y="100" width="11" height="11" rx="2.5" fill="#C6FF3D" fill-opacity="0.3"/><rect x="1037" y="114" width="11" height="11" rx="2.5" fill="#fff" fill-opacity="0.06"/><rect x="1037" y="128" width="11" height="11" rx="2.5" fill="#C6FF3D" fill-opacity="0.3"/><rect x="1037" y="142" width="11" height="11" rx="2.5" fill="#fff" fill-opacity="0.06"/><rect x="1037" y="156" width="11" height="11" rx="2.5" fill="#C6FF3D" fill-opacity="0.3"/><rect x="1037" y="170" width="11" height="11" rx="2.5" fill="#fff" fill-opacity="0.06"/><rect x="1037" y="184" width="11" height="11" rx="2.5" fill="#C6FF3D" fill-opacity="0.3"/><rect x="1051" y="100" width="11" height="11" rx="2.5" fill="#fff" fill-opacity="0.06"/><rect x="1051" y="114" width="11" height="11" rx="2.5" fill="#C6FF3D" fill-opacity="0.3"/><rect x="1051" y="128" width="11" height="11" rx="2.5" fill="#fff" fill-opacity="0.06"/><rect x="1051" y="142" width="11" height="11" rx="2.5" fill="#C6FF3D" fill-opacity="0.3"/><rect x="1051" y="156" width="11" height="11" rx="2.5" fill="#fff" fill-opacity="0.06"/><rect x="1051" y="170" width="11" height="11" rx="2.5" fill="#C6FF3D" fill-opacity="0.3"/><rect x="1051" y="184" width="11" height="11" rx="2.5" fill="#C6FF3D" fill-opacity="0.3"/><rect x="1065" y="100" width="11" height="11" rx="2.5" fill="#fff" fill-opacity="0.06"/><rect x="1065" y="114" width="11" height="11" rx="2.5" fill="#C6FF3D" fill-opacity="0.3"/><rect x="1065" y="128" width="11" height="11" rx="2.5" fill="#fff" fill-opacity="0.06"/><rect x="1065" y="142" width="11" height="11" rx="2.5" fill="#C6FF3D" fill-opacity="0.3"/><rect x="1065" y="156" width="11" height="11" rx="2.5" fill="#fff" fill-opacity="0.06"/><rect x="1065" y="170" width="11" height="11" rx="2.5" fill="#C6FF3D" fill-opacity="0.3"/><rect x="1065" y="184" width="11" height="11" rx="2.5" fill="#fff" fill-opacity="0.06"/><rect x="1079" y="100" width="11" height="11" rx="2.5" fill="#C6FF3D" fill-opacity="0.3"/><rect x="1079" y="114" width="11" height="11" rx="2.5" fill="#fff" fill-opacity="0.06"/><rect x="1079" y="128" width="11" height="11" rx="2.5" fill="#C6FF3D" fill-opacity="0.3"/><rect x="1079" y="142" width="11" height="11" rx="2.5" fill="#fff" fill-opacity="0.06"/><rect x="1079" y="156" width="11" height="11" rx="2.5" fill="#C6FF3D" fill-opacity="0.3"/><rect x="1079" y="170" width="11" height="11" rx="2.5" fill="#fff" fill-opacity="0.06"/><rect x="1079" y="184" width="11" height="11" rx="2.5" fill="#C6FF3D" fill-opacity="0.3"/><text x="1093" y="88" class="mono" font-size="11" fill="#8A8A86">Sep</text><rect x="1093" y="100" width="11" height="11" rx="2.5" fill="#fff" fill-opacity="0.06"/><rect x="1093" y="114" width="11" height="11" rx="2.5" fill="#C6FF3D" fill-opacity="0.3"/><rect x="1093" y="128" width="11" height="11" rx="2.5" fill="#fff" fill-opacity="0.06"/><rect x="1093" y="142" width="11" height="11" rx="2.5" fill="#C6FF3D" fill-opacity="0.3"/><rect x="1093" y="156" width="11" height="11" rx="2.5" fill="#fff" fill-opacity="0.06"/><rect x="1093" y="170" width="11" height="11" rx="2.5" fill="#C6FF3D" fill-opacity="0.3"/><rect x="1093" y="184" width="11" height="11" rx="2.5" fill="#C6FF3D" fill-opacity="0.3"/><rect x="1107" y="100" width="11" height="11" rx="2.5" fill="#fff" fill-opacity="0.06"/><rect x="1107" y="114" width="11" height="11" rx="2.5" fill="#C6FF3D" fill-opacity="0.3"/><rect x="1107" y="128" width="11" height="11" rx="2.5" fill="#fff" fill-opacity="0.06"/><rect x="1107" y="142" width="11" height="11" rx="2.5" fill="#C6FF3D" fill-opacity="0.3"/><rect x="1107" y="156" width="11" height="11" rx="2.5" fill="#C6FF3D" fill-opacity="0.3"/><rect x="1107" y="170" width="11" height="11" rx="2.5" fill="#C6FF3D" fill-opacity="0.3"/><rect x="1107" y="184" width="11" height="11" rx="2.5" fill="#C6FF3D" fill-opacity="0.3"/><rect x="1121" y="100" width="11" height="11" rx="2.5" fill="#C6FF3D" fill-opacity="0.5"/><rect x="1121" y="114" width="11" height="11" rx="2.5" fill="#C6FF3D" fill-opacity="0.3"/><rect x="1121" y="128" width="11" height="11" rx="2.5" fill="#C6FF3D" fill-opacity="0.3"/><rect x="1121" y="142" width="11" height="11" rx="2.5" fill="#C6FF3D" fill-opacity="0.3"/><rect x="1121" y="156" width="11" height="11" rx="2.5" fill="#C6FF3D" fill-opacity="0.3"/><rect x="1121" y="170" width="11" height="11" rx="2.5" fill="#C6FF3D" fill-opacity="0.3"/><rect x="1121" y="184" width="11" height="11" rx="2.5" fill="#C6FF3D" fill-opacity="0.3"/><rect x="1135" y="100" width="11" height="11" rx="2.5" fill="#C6FF3D" fill-opacity="0.3"/><rect x="1135" y="114" width="11" height="11" rx="2.5" fill="#C6FF3D" fill-opacity="0.3"/><rect x="1135" y="128" width="11" height="11" rx="2.5" fill="#C6FF3D" fill-opacity="0.3"/><rect x="1135" y="142" width="11" height="11" rx="2.5" fill="#fff" fill-opacity="0.06"/><rect x="1135" y="156" width="11" height="11" rx="2.5" fill="#C6FF3D" fill-opacity="0.3"/><rect x="1135" y="170" width="11" height="11" rx="2.5" fill="#C6FF3D" fill-opacity="0.3"/><rect x="1135" y="184" width="11" height="11" rx="2.5" fill="#fff" fill-opacity="0.06"/><rect x="1149" y="100" width="11" height="11" rx="2.5" fill="#C6FF3D" fill-opacity="0.3"/><text x="1042" y="216" text-anchor="end" class="mono" font-size="11" fill="#8A8A86">less</text><rect x="1050" y="207" width="11" height="11" rx="2.5" fill="#fff" fill-opacity="0.06"/><rect x="1064" y="207" width="11" height="11" rx="2.5" fill="#C6FF3D" fill-opacity="0.3"/><rect x="1078" y="207" width="11" height="11" rx="2.5" fill="#C6FF3D" fill-opacity="0.5"/><rect x="1092" y="207" width="11" height="11" rx="2.5" fill="#C6FF3D" fill-opacity="0.75"/><rect x="1106" y="207" width="11" height="11" rx="2.5" fill="#C6FF3D" fill-opacity="1"/><text x="1160" y="216" text-anchor="end" class="mono" font-size="11" fill="#8A8A86">more</text><text x="40" y="288" class="mono label">TOP LANGUAGES</text><clipPath id="bar"><rect x="40" y="302" width="1120" height="10" rx="5"/></clipPath><g clip-path="url(#bar)"><rect x="40.0" y="302" width="471.2" height="10" fill="#C6FF3D"/><rect x="510.2" y="302" width="292.2" height="10" fill="#8FBF2A"/><rect x="801.3" y="302" width="283.9" height="10" fill="#F4F4F0"/><rect x="1084.3" y="302" width="42.3" height="10" fill="#B8B8B2"/><rect x="1125.6" y="302" width="18.7" height="10" fill="#6E6E6A"/><rect x="1143.3" y="302" width="17.7" height="10" fill="#3E3E3B"/></g><circle cx="45" cy="342" r="5" fill="#C6FF3D"/><text x="58" y="347" class="mono" font-size="13" fill="#C9C9C4">TypeScript <tspan fill="#8A8A86">42%</tspan></text><circle cx="212.0" cy="342" r="5" fill="#8FBF2A"/><text x="225.0" y="347" class="mono" font-size="13" fill="#C9C9C4">Python <tspan fill="#8A8A86">26%</tspan></text><circle cx="345.0" cy="342" r="5" fill="#F4F4F0"/><text x="358.0" y="347" class="mono" font-size="13" fill="#C9C9C4">JavaScript <tspan fill="#8A8A86">25%</tspan></text><circle cx="512.0" cy="342" r="5" fill="#B8B8B2"/><text x="525.0" y="347" class="mono" font-size="13" fill="#C9C9C4">Rust <tspan fill="#8A8A86">4%</tspan></text><circle cx="619.5" cy="342" r="5" fill="#6E6E6A"/><text x="632.5" y="347" class="mono" font-size="13" fill="#C9C9C4">Go <tspan fill="#8A8A86">2%</tspan></text><circle cx="710.0" cy="342" r="5" fill="#3E3E3B"/><text x="723.0" y="347" class="mono" font-size="13" fill="#C9C9C4">Kotlin <tspan fill="#8A8A86">1%</tspan></text>
</svg>
